<svg xmlns="http://www.w3.org/2000/svg" fill="none" viewBox="0 0 60 60"><path d="M43.125 45c-6.75 0-9.431-7.83-12.024-15.401C28.644 22.42 26.1 15 20.625 15a6.45 6.45 0 0 0-5.724 4.352l-3.557-1.195c.095-.28 2.383-6.907 9.281-6.907 8.156 0 11.273 9.103 14.025 17.134C36.917 35 39.056 41.25 43.125 41.25a6.45 6.45 0 0 0 5.724-4.352l3.555 1.194c-.093.282-2.38 6.908-9.279 6.908Z" fill="#05807C"/><path d="M7.5 52.5V31.875h3.75v-3.75H7.5V3.75H3.75V52.5a3.75 3.75 0 0 0 3.75 3.75h48.75V52.5H7.5Z" fill="#05807C"/><path d="M15 28.125h3.75v3.75H15v-3.75Zm7.5 0h3.75v3.75H22.5v-3.75Zm15 0h3.75v3.75H37.5v-3.75Zm7.5 0h3.75v3.75H45v-3.75Zm7.5 0h3.75v3.75H52.5v-3.75Z" fill="#05807C"/></svg>