<svg xmlns="http://www.w3.org/2000/svg" fill="none" viewBox="0 0 51 50"><path d="M42.5 40.775V45a5 5 0 0 1-5 5h-25a5 5 0 0 1-5-5v-9.25c-1.15-.45-2.625-.75-5-.75a2.5 2.5 0 0 1 0-5c2.05 0 3.675.2 5 .525V25.75c-1.15-.45-2.625-.75-5-.75a2.5 2.5 0 0 1 0-5c2.05 0 3.675.2 5 .525V15.75c-1.15-.45-2.625-.75-5-.75a2.5 2.5 0 0 1 0-5c2.05 0 3.675.2 5 .525V5a5 5 0 0 1 5-5h25a5 5 0 0 1 5 5v5.4c4.45.775 6.35 2.425 6.775 2.825a2.52 2.52 0 0 1 0 3.55c-.975.975-2.275.95-3.55 0 0 0-2.6-1.775-8.225-1.775-3.15 0-5.225 1.025-7.625 2.25C27.275 18.525 24.35 20 20 20c-.9 0-1.725 0-2.5-.1v-5.025C18.25 15 19.075 15 20 15c3.15 0 5.225-1.025 7.625-2.225 2.6-1.3 5.55-2.775 9.875-2.775V5h-25v40h25v-5c3.75 0 4.925.725 5 .775ZM37.5 20c-4.325 0-7.275 1.475-9.875 2.775C25.225 23.975 23.15 25 20 25c-.925 0-1.75 0-2.5-.125V29.9c.775.1 1.6.1 2.5.1 4.35 0 7.275-1.475 9.875-2.75 2.4-1.2 4.475-2.25 7.625-2.25 5.625 0 8.225 1.775 8.225 1.775 1.275.975 2.575.975 3.55 0 .975-.975.975-2.55 0-3.55C48.75 22.7 45.625 20 37.5 20Zm0 10c-4.325 0-7.275 1.475-9.875 2.775C25.225 33.975 23.15 35 20 35c-.925 0-1.75 0-2.5-.125V39.9c.775.1 1.6.1 2.5.1 4.35 0 7.275-1.475 9.875-2.75 2.4-1.2 4.475-2.25 7.625-2.25 5.625 0 8.225 1.775 8.225 1.775 1.275.975 2.575.975 3.55 0 .975-.975.975-2.55 0-3.55C48.75 32.7 45.625 30 37.5 30Z" fill="#05807C"/></svg>