<svg xmlns="http://www.w3.org/2000/svg" fill="none" viewBox="0 0 60 36"><path d="M30 .5A8.75 8.75 0 1 0 30 18 8.75 8.75 0 0 0 30 .5Zm0 5a3.75 3.75 0 1 1 0 7.5 3.75 3.75 0 0 1 0-7.5ZM13.75 8a6.25 6.25 0 0 0-6.25 6.25c0 2.35 1.325 4.375 3.225 5.45.9.5 1.925.8 3.025.8 1.1 0 2.125-.3 3.025-.8a6.534 6.534 0 0 0 2.275-2.175 13.55 13.55 0 0 1-2.8-8.275v-.7c-.75-.35-1.6-.55-2.5-.55Zm32.5 0c-.9 0-1.75.2-2.5.55v.7c0 3-.975 5.9-2.8 8.275.3.475.625.85 1 1.225a6.205 6.205 0 0 0 4.3 1.75c1.1 0 2.125-.3 3.025-.8 1.9-1.075 3.225-3.1 3.225-5.45A6.25 6.25 0 0 0 46.25 8ZM30 23c-5.85 0-17.5 2.925-17.5 8.75v3.75h35v-3.75C47.5 25.925 35.85 23 30 23Zm-18.225 1.375C6.95 24.95 0 27.4 0 31.75v3.75h7.5v-4.825c0-2.525 1.725-4.625 4.275-6.3Zm36.45 0c2.55 1.675 4.275 3.775 4.275 6.3V35.5H60v-3.75c0-4.35-6.95-6.8-11.775-7.375ZM30 28c3.825 0 8.1 1.25 10.575 2.5h-21.15C21.9 29.25 26.175 28 30 28Z" fill="#05807C"/></svg>