<svg xmlns="http://www.w3.org/2000/svg" fill="none" viewBox="0 0 36 36"><path d="M36 18c0 9.941-8.06 18-18 18-9.941 0-18-8.059-18-18S8.059 0 18 0c9.94 0 18 8.059 18 18Z" fill="#81AEB8"/><path d="M17.892 7c.271.087.555.146.812.265.94.436 1.495 1.202 1.73 2.257-.737.418-1.323 1-1.827 1.722-.013-.129-.032-.257-.037-.386-.012-.289.007-.581-.03-.866-.071-.576-.541-.98-1.088-.968-.547.011-.984.41-1.048.983-.03.278-.022.561-.02.842 0 .504-.228.831-.674 1.018-1.727.724-2.774 2.044-3.152 3.938a4.22 4.22 0 0 0-.072.787c-.009 1.065-.005 2.13-.005 3.197 0 .51-.09.992-.313 1.454-.336.7-.647 1.413-.968 2.12-.033.075-.061.151-.1.247h12.776c-.037-.09-.068-.172-.103-.251-.307-.677-.606-1.359-.925-2.03-.41-.864-.413-1.36-.361-2.448.63-.1 1.255-.197 1.897-.298 0 .311-.022.669.006 1.023.023.273.066.56.172.807.408.955.853 1.895 1.27 2.847.412.943.04 1.93-.86 2.262-.224.083-.48.103-.721.108-.712.014-1.424.005-2.137.005h-.293c-.105 1.489-.701 2.692-1.864 3.558a4.03 4.03 0 0 1-2.536.805c-1.996-.03-4.1-1.674-4.216-4.363h-1.026c-.532 0-1.064.013-1.596-.008-.764-.031-1.323-.508-1.534-1.273-.01-.04-.032-.077-.049-.115v-.563c.077-.185.148-.374.23-.557.403-.893.815-1.782 1.206-2.68a1.69 1.69 0 0 0 .137-.631c.013-1.014.002-2.03.008-3.044.003-.314.012-.632.058-.943.36-2.453 1.587-4.281 3.675-5.477.132-.076.186-.15.19-.31.024-.98.431-1.763 1.158-2.376.425-.357.925-.528 1.444-.658h.786Zm-2.74 18.68c-.06 1.169 1.07 2.324 2.283 2.346 1.298.024 2.403-1.055 2.389-2.346h-4.671Z" fill="#072E41"/><path d="M22.701 17.03c-1.667-.002-3.033-1.428-3.023-3.157.01-1.747 1.37-3.14 3.067-3.137 1.645.003 3.005 1.435 3 3.157-.006 1.734-1.37 3.14-3.044 3.138Z" fill="#05807C"/></svg>