<svg xmlns="http://www.w3.org/2000/svg" fill="none" viewBox="0 0 59 47"><g clip-path="url(#a)"><path d="M3.78.643a2.238 2.238 0 0 0-3.135 0c-.867.853-.857 2.258 0 3.12l6.638 6.61a2.21 2.21 0 0 0 3.125 0c.857-.863.866-2.258 0-3.112L3.779.643Zm51.44 0-6.637 6.609a2.188 2.188 0 0 0 0 3.112c.866.854 2.267.863 3.125 0l6.637-6.61a2.187 2.187 0 0 0 0-3.111c-.866-.854-2.268-.863-3.125 0ZM.645 46.357a2.21 2.21 0 0 0 3.125 0l6.638-6.609a2.187 2.187 0 0 0 0-3.112c-.867-.854-2.268-.863-3.125 0l-6.638 6.6a2.187 2.187 0 0 0 0 3.112v.01Zm54.575 0a2.21 2.21 0 0 0 3.125 0c.858-.862.867-2.258 0-3.111l-6.637-6.61a2.21 2.21 0 0 0-3.125 0c-.858.863-.867 2.258 0 3.112l6.637 6.61ZM29.5 23.5a5.913 5.913 0 0 0 4.172-1.72 5.863 5.863 0 0 0 1.728-4.155 5.862 5.862 0 0 0-1.728-4.154A5.913 5.913 0 0 0 29.5 11.75a5.913 5.913 0 0 0-4.172 1.72 5.862 5.862 0 0 0-1.728 4.155 5.86 5.86 0 0 0 1.728 4.154A5.913 5.913 0 0 0 29.5 23.5Zm-9.947 7.344a6.47 6.47 0 0 0-.378 2.203c0 1.22.986 2.203 2.212 2.203h16.225a2.203 2.203 0 0 0 2.213-2.203 6.47 6.47 0 0 0-.378-2.203 4.364 4.364 0 0 0-.148-.367 6.639 6.639 0 0 0-6.112-4.04h-7.375a6.282 6.282 0 0 0-1.337.138 6.638 6.638 0 0 0-4.922 4.269Zm-3.347-10.282a4.44 4.44 0 0 0 3.13-1.29 4.406 4.406 0 0 0 1.295-3.116 4.391 4.391 0 0 0-1.296-3.115 4.427 4.427 0 0 0-3.129-1.291 4.442 4.442 0 0 0-3.129 1.29 4.405 4.405 0 0 0-1.296 3.116 4.39 4.39 0 0 0 1.296 3.116 4.427 4.427 0 0 0 3.13 1.29ZM13.763 23.5c-2.71 0-4.913 2.194-4.913 4.893a2.456 2.456 0 0 0 2.461 2.45h5.172a9.55 9.55 0 0 1 6.01-6.756 4.884 4.884 0 0 0-2.332-.587h-6.398Zm33.925 7.344a2.456 2.456 0 0 0 2.462-2.451c0-2.708-2.204-4.893-4.914-4.893h-6.398a4.86 4.86 0 0 0-2.332.587 9.55 9.55 0 0 1 6.01 6.757h5.172Zm-4.913-10.282a4.44 4.44 0 0 0 3.129-1.29 4.406 4.406 0 0 0 1.296-3.116 4.39 4.39 0 0 0-1.296-3.115 4.427 4.427 0 0 0-3.13-1.291 4.441 4.441 0 0 0-3.128 1.29 4.403 4.403 0 0 0-1.296 3.116 4.39 4.39 0 0 0 1.296 3.116 4.426 4.426 0 0 0 3.129 1.29Z" fill="#05807C"/></g><defs><clipPath id="a"><path d="M0 0h59v47H0z" fill="#fff"/></clipPath></defs></svg>