<svg xmlns="http://www.w3.org/2000/svg" fill="none" viewBox="0 0 215 140"><g clip-path="url(#a)"><mask id="b" width="215" height="140" x="0" y="0" maskUnits="userSpaceOnUse" style="mask-type:luminance"><path d="M215 0H0v140h215V0Z" fill="#fff"/></mask><g mask="url(#b)"><path d="M38.862 34.773c18.85 0 33.95 15.483 33.95 34.728 0 19.246-15.077 34.524-33.95 34.524-18.851 0-33.86-15.3-33.86-34.524 0-19.245 15.009-34.728 33.86-34.728Zm0 56.74c11.87 0 21.693-9.907 21.693-22.034 0-12.128-9.8-22.215-21.693-22.215-11.87 0-21.58 10.11-21.58 22.215-.023 12.127 9.687 22.033 21.58 22.033Zm38.452-24.415c-.568-1.246.182-2.493 1.592-2.493h8.481c.842 0 1.32.476 1.592 1.065l9.528 21.74h.091l9.437-21.74c.477-.952 1.137-1.065 2.274-1.065h7.549c1.501 0 2.251 1.247 1.592 2.493l-28.834 63.653c-.272.567-.84 1.156-1.591 1.156h-8.118c-1.41 0-2.274-1.246-1.592-2.606l13.394-28.948-15.395-33.255Zm64.966-3.468c9.71 0 17.623 7.503 17.623 17.886 0 .68-.091 1.926-.182 2.606-.091.953-.932 1.632-1.796 1.632h-24.126c.273 3.945 3.592 8.365 9.05 8.365 2.933 0 5.662-1.156 7.345-2.403.932-.566 1.796-.77 2.456 0l3.865 4.511c.66.68.842 1.723-.091 2.494-3.115 2.992-7.913 5.282-14.053 5.282-11.324 0-19.328-9.136-19.328-20.198 0-10.858 8.027-20.175 19.237-20.175Zm6.595 15.392c-.273-3.559-3.297-6.551-6.89-6.551-3.775 0-6.89 2.879-7.345 6.551h14.235Z" fill="#65BD55"/></g><path d="M38.43 34.977c18.805 0 33.836 15.438 33.836 34.615s-15.03 34.433-33.836 34.433c-18.806 0-33.745-15.256-33.745-34.433 0-19.178 14.94-34.615 33.745-34.615Zm0 59.46c13.439 0 24.444-11.13 24.444-24.845 0-13.624-11.005-25.026-24.444-25.026-13.348 0-24.354 11.402-24.354 25.026 0 13.714 11.006 24.844 24.354 24.844Zm39.202-27.248c-.568-1.247.182-2.493 1.592-2.493h6.208c.568 0 1.319.476 1.592 1.065l11.665 25.502h.09l11.28-25.502c.386-.861 1.137-1.065 1.978-1.065h5.366c1.501 0 2.252 1.246 1.592 2.493L90.23 130.661c-.273.566-.841 1.156-1.592 1.156h-5.64c-1.409 0-2.25-1.247-1.59-2.585l12.597-27.519-16.373-34.524Zm64.648-3.445c9.778 0 17.304 7.48 17.304 17.749 0 .68-.091 1.927-.182 2.584-.091.952-.841 1.632-1.682 1.632h-25.582c.273 5.169 4.707 10.269 10.801 10.269 3.388 0 6.481-1.541 8.368-2.788 1.137-.68 1.797-1.066 2.547-.09l2.638 3.649c.659.77.932 1.541-.182 2.493-2.729 2.403-7.618 4.806-13.917 4.806-11.369 0-18.896-9.113-18.896-20.13 0-10.88 7.504-20.175 18.783-20.175Zm8.572 15.913c-.272-4.602-4.047-8.524-8.64-8.524-5.071 0-9.028 3.74-9.596 8.524h18.236Z" fill="#fff"/><mask id="c" width="215" height="140" x="0" y="0" maskUnits="userSpaceOnUse" style="mask-type:luminance"><path d="M215 0H0v140h215V0Z" fill="#fff"/></mask><g mask="url(#c)"><path d="M38.43 104.592c-9.255 0-17.873-3.627-24.331-10.2-6.435-6.575-9.983-15.393-9.983-24.823 0-9.452 3.548-18.293 9.983-24.912 6.458-6.642 15.099-10.292 24.33-10.292 9.233 0 17.897 3.65 24.377 10.292 6.481 6.619 10.028 15.482 10.028 24.912s-3.57 18.248-10.028 24.822c-6.48 6.597-15.121 10.201-24.376 10.201Zm0-69.025c-18.283 0-33.177 15.278-33.177 34.025 0 18.973 14.576 33.844 33.177 33.844 18.646 0 33.267-14.87 33.267-33.844 0-18.77-14.917-34.025-33.267-34.025Zm0 59.436c-13.735 0-24.922-11.402-24.922-25.411 0-6.755 2.615-13.148 7.322-18.021 4.752-4.897 10.983-7.572 17.577-7.572 6.64 0 12.916 2.698 17.669 7.572 4.73 4.873 7.344 11.266 7.344 18.021.023 14.01-11.21 25.411-24.99 25.411Zm0-49.847c-12.893 0-23.763 11.198-23.763 24.436 0 13.374 10.665 24.255 23.763 24.255 13.166 0 23.876-10.88 23.876-24.255-.023-13.488-10.71-24.436-23.876-24.436Z" fill="#fff"/></g><mask id="d" width="215" height="140" x="0" y="0" maskUnits="userSpaceOnUse" style="mask-type:luminance"><path d="M215 0H0v140h215V0Z" fill="#fff"/></mask><g mask="url(#d)"><path d="M88.615 132.406h-5.64c-.886 0-1.66-.408-2.069-1.088-.41-.68-.432-1.541-.023-2.335l12.484-27.247-16.236-34.275c-.363-.793-.318-1.61.091-2.29.41-.657 1.16-1.042 2.024-1.042h6.208c.796 0 1.728.612 2.115 1.383l11.188 24.481 10.823-24.459c.546-1.246 1.683-1.405 2.502-1.405h5.366c.933 0 1.706.408 2.115 1.11.387.658.387 1.474-.023 2.245L90.73 130.91c-.364.748-1.092 1.496-2.115 1.496Zm-9.391-67.121c-.478 0-.865.181-1.07.521-.204.318-.204.748-.022 1.157l16.463 34.75-12.711 27.769c-.227.453-.227.884-.023 1.224.205.34.614.544 1.114.544h5.64c.5 0 .887-.431 1.091-.839L118.45 66.94c.227-.43.25-.816.068-1.134-.205-.34-.614-.544-1.137-.544h-5.366c-.956 0-1.274.272-1.456.703L99.12 91.807h-.818L86.5 65.965c-.182-.385-.75-.725-1.091-.725h-6.186v.045Z" fill="#fff"/></g><mask id="e" width="215" height="140" x="0" y="0" maskUnits="userSpaceOnUse" style="mask-type:luminance"><path d="M215 0H0v140h215V0Z" fill="#fff"/></mask><g mask="url(#e)"><path d="M142.371 104.592c-11.097 0-19.465-8.909-19.465-20.719s8.323-20.719 19.374-20.719c10.187 0 17.873 7.866 17.873 18.316 0 .68-.091 1.95-.204 2.675-.114 1.202-1.092 2.13-2.252 2.13h-24.945c.546 4.49 4.457 9.09 10.188 9.09 3.479 0 6.548-1.676 8.049-2.697 1.115-.657 2.229-1.337 3.297.023l2.638 3.65c.341.385.751.974.705 1.7-.045.567-.364 1.088-.955 1.61-3.524 3.105-8.868 4.941-14.303 4.941Zm-.091-40.26c-10.392 0-18.237 8.41-18.237 19.564 0 11.334 7.709 19.563 18.328 19.563 7.64 0 12.302-3.56 13.53-4.648.364-.294.546-.566.568-.816.023-.226-.113-.498-.432-.86l-.022-.046-2.638-3.65c-.387-.499-.569-.476-1.796.25-1.592 1.065-4.867 2.856-8.664 2.856-6.663 0-11.097-5.622-11.37-10.813l-.023-.612h26.173c.569 0 1.069-.476 1.115-1.11.091-.704.182-1.905.182-2.54.022-9.77-7.163-17.137-16.714-17.137Zm9.164 15.914h-19.488l.069-.657c.614-5.237 4.889-9.045 10.164-9.045 4.775 0 8.914 4.08 9.21 9.09l.045.612Zm-18.169-1.156h16.941c-.546-4.126-4.025-7.367-8.027-7.367-4.457-.023-8.118 3.037-8.914 7.367Z" fill="#fff"/></g><mask id="f" width="215" height="140" x="0" y="0" maskUnits="userSpaceOnUse" style="mask-type:luminance"><path d="M215 0H0v140h215V0Z" fill="#fff"/></mask><g mask="url(#f)"><path d="M214.841 18.747c0-5.146-2.024-9.793-5.321-13.17C206.2 2.22 201.652.158 196.604.158H163.45c2.661.861 14.462 5.281 14.667 16.253V37.63h20.807c10.755.203 15.098 12.24 15.94 14.96V18.748h-.023Z" fill="#05807C"/></g><mask id="g" width="215" height="140" x="0" y="0" maskUnits="userSpaceOnUse" style="mask-type:luminance"><path d="M215 0H0v140h215V0Z" fill="#fff"/></mask><g mask="url(#g)"><path d="M162.904 0s14.963 4.058 15.19 16.412V37.63H160.13c-10.142 0-18.373-8.388-18.373-18.747 0-10.36 8.231-18.747 18.373-18.747L162.904 0Z" fill="#65BD55"/></g><mask id="h" width="215" height="140" x="0" y="0" maskUnits="userSpaceOnUse" style="mask-type:luminance"><path d="M215 0H0v140h215V0Z" fill="#fff"/></mask><g mask="url(#h)"><path d="M178.094 39.103v16.865c0 10.36 8.231 18.747 18.373 18.747 10.142 0 18.373-8.387 18.373-18.747l.16-2.833s-3.98-15.256-16.1-15.505h-20.806v1.473Z" fill="#81AEB8"/></g></g><defs><clipPath id="a"><path d="M0 0h215v140H0z" fill="#fff"/></clipPath></defs></svg>