<svg xmlns="http://www.w3.org/2000/svg" fill="none" viewBox="0 0 50 50"><path d="M25 50c-3.458 0-6.708-.657-9.75-1.97s-5.688-3.094-7.938-5.343c-2.25-2.25-4.03-4.895-5.342-7.937C.658 31.708.002 28.458 0 25c0-3.458.657-6.708 1.97-9.75s3.094-5.688 5.343-7.938c2.25-2.25 4.895-4.03 7.937-5.342C18.292.658 21.542.002 25 0c3.458 0 6.708.657 9.75 1.97s5.688 3.094 7.938 5.343c2.25 2.25 4.031 4.895 5.344 7.937 1.314 3.042 1.97 6.292 1.968 9.75 0 3.458-.657 6.708-1.97 9.75s-3.094 5.688-5.343 7.938c-2.25 2.25-4.895 4.031-7.937 5.344-3.042 1.314-6.292 1.97-9.75 1.968Zm0-5c5.583 0 10.313-1.938 14.188-5.813C43.062 35.313 45 30.584 45 25s-1.938-10.313-5.813-14.188C35.313 6.938 30.584 5 25 5s-10.313 1.938-14.188 5.813C6.938 14.687 5 19.416 5 25s1.938 10.313 5.813 14.188C14.687 43.062 19.416 45 25 45Zm0-5c-4.167 0-7.708-1.458-10.625-4.375S10 29.167 10 25s1.458-7.708 4.375-10.625S20.833 10 25 10s7.708 1.458 10.625 4.375S40 20.833 40 25s-1.458 7.708-4.375 10.625S29.167 40 25 40Zm0-5c2.75 0 5.104-.98 7.063-2.938C34.02 30.105 35 27.75 35 25s-.98-5.104-2.938-7.063C30.105 15.98 27.75 15 25 15s-5.104.98-7.063 2.938C15.98 19.895 15 22.25 15 25s.98 5.104 2.938 7.063C19.895 34.02 22.25 35 25 35Zm0-5c-1.375 0-2.552-.49-3.532-1.47S19.998 26.373 20 25c0-1.375.49-2.552 1.47-3.532S23.627 19.998 25 20c1.375 0 2.552.49 3.532 1.47S30.002 23.627 30 25c0 1.375-.49 2.552-1.47 3.532S26.373 30.002 25 30Z" fill="#05807C"/></svg>