<svg xmlns="http://www.w3.org/2000/svg" fill="none" viewBox="0 0 60 60"><path d="m19.747 9.563 5.224 6.112-.564.63C13.656 18.716 5.625 28.318 5.625 39.797c0 10.091 8.19 18.281 18.281 18.281h11.569c10.091 0 18.281-8.188 18.281-18.28.019-11.48-8.012-21.082-18.763-23.493a2.07 2.07 0 0 0-.206-1.153l4.444-5.087.286-.442a3.667 3.667 0 0 0-5.422-4.544l-1.58-1.875a3.788 3.788 0 0 0-5.64-.009l-1.656 1.849a3.675 3.675 0 0 0-5.472 4.519Zm7.124 2.596-3.18-3.675a3.709 3.709 0 0 0 4.434-.937l1.5-1.946 1.665 1.972a3.693 3.693 0 0 0 4.313.962l-3.166 3.624h-5.566ZM9.375 39.797c0-11.228 9.098-20.325 20.325-20.325 11.228 0 20.325 9.097 20.306 20.321v.004a14.537 14.537 0 0 1-14.531 14.531H23.906A14.537 14.537 0 0 1 9.375 39.797Z" fill="#05807C"/></svg>