<svg xmlns="http://www.w3.org/2000/svg" fill="none" viewBox="0 0 36 36"><path d="M36 18c0 9.941-8.06 18-18 18-9.941 0-18-8.059-18-18S8.059 0 18 0c9.94 0 18 8.059 18 18Z" fill="#81AEB8"/><path d="M8 27.083C8 29 9.9 29 9.9 29h15.2s1.9 0 1.9-1.917c0-1.916-1.9-7.666-9.5-7.666S8 25.167 8 27.083Zm13.53-11.267A5.675 5.675 0 0 1 17.5 17.5a5.675 5.675 0 0 1-4.03-1.684 5.776 5.776 0 0 1-1.67-4.066c0-1.525.6-2.988 1.67-4.066A5.675 5.675 0 0 1 17.5 6c1.512 0 2.962.606 4.03 1.684a5.775 5.775 0 0 1 1.67 4.066c0 1.525-.6 2.988-1.67 4.066Z" fill="#072E41"/></svg>