<svg width="15" height="15" viewBox="0 0 15 15" fill="none" xmlns="http://www.w3.org/2000/svg">
<path d="M0 11.2944C0 8.76466 0 6.23489 0 3.70511C0.0138806 3.65586 0.0353731 3.60795 0.0407463 3.5578C0.227463 1.87562 1.41179 0.525656 3.05597 0.128504C3.27045 0.0765649 3.48896 0.042536 3.70522 0C6.23507 0 8.76493 0 11.2948 0C11.344 0.0134324 11.3928 0.0340288 11.443 0.0398496C13.4901 0.269992 14.9937 1.94099 14.9969 3.99928C15.0004 6.3419 15.0013 8.68407 14.9964 11.0267C14.9919 13.2301 13.2322 14.991 11.0279 14.996C8.67806 15.0013 6.32821 15.0009 3.97791 14.996C2.1309 14.9919 0.559702 13.745 0.126269 11.9468C0.0747761 11.7319 0.0416418 11.512 0 11.2944ZM14.1094 7.51366C14.1094 6.35354 14.1107 5.19343 14.109 4.03331C14.1063 2.28441 12.7867 0.917883 11.0391 0.903107C8.68164 0.883406 6.32373 0.883406 3.96627 0.903107C2.25 0.917435 0.914776 2.25934 0.902687 3.97287C0.886119 6.33026 0.884776 8.6881 0.903134 11.0455C0.916567 12.7774 2.28627 14.1067 4.01776 14.1085C6.33806 14.1112 8.65881 14.1108 10.9791 14.1085C12.7563 14.1067 14.1067 12.7519 14.109 10.9716C14.1107 9.81911 14.1094 8.66616 14.1094 7.51366Z" fill="#072E41"/>
<path d="M7.50924 10.6309C6.50267 10.5933 5.6067 10.2673 4.77969 9.73046C4.01043 9.23122 3.36387 8.599 2.81446 7.86693C2.60446 7.58709 2.60357 7.42724 2.81536 7.14471C3.43775 6.31369 4.177 5.60715 5.08416 5.09582C6.75073 4.15644 8.41327 4.19047 10.053 5.16925C10.9006 5.6752 11.5991 6.34951 12.1906 7.13576C12.4171 7.43709 12.4189 7.57545 12.1901 7.8732C11.2834 9.05436 10.1958 9.99821 8.73163 10.4146C8.33581 10.5274 7.91715 10.561 7.50924 10.6309ZM11.3542 7.51858C10.8961 6.8989 10.1797 6.26713 9.5076 5.87893C8.92595 5.54267 8.30536 5.32193 7.63058 5.31342C5.89775 5.29238 4.71476 6.27563 3.64775 7.49843C4.32342 8.3205 5.08372 8.99346 6.05088 9.40405C6.67998 9.67091 7.3373 9.76762 8.01342 9.66329C9.43909 9.44255 10.4506 8.57348 11.3542 7.51858Z" fill="#072E41"/>
<path d="M7.50141 8.83362C6.78231 8.83138 6.18499 8.23453 6.17828 7.51187C6.17156 6.78786 6.78813 6.17041 7.51126 6.17758C8.23529 6.18474 8.83081 6.7798 8.83395 7.49978C8.83708 8.22692 8.22858 8.83586 7.50141 8.83362ZM7.94425 7.49619C7.93753 7.25978 7.72753 7.06412 7.49022 7.07307C7.24529 7.08248 7.06037 7.28396 7.07335 7.52754C7.08544 7.75723 7.28559 7.94797 7.51081 7.94484C7.74231 7.94126 7.95096 7.72499 7.94425 7.49619Z" fill="#072E41"/>
</svg>
